<?xml version="1.0" encoding="UTF-8" standalone="no"?><svg xmlns="http://www.w3.org/2000/svg" xmlns:xlink="http://www.w3.org/1999/xlink" contentScriptType="application/ecmascript" contentStyleType="text/css" height="514px" preserveAspectRatio="none" style="width:1618px;height:514px;background:#FFFFFF;" version="1.1" viewBox="0 0 1618 514" width="1618px" zoomAndPan="magnify"><defs><filter height="300%" id="f19i2ncc75odzs" width="300%" x="-1" y="-1"><feGaussianBlur result="blurOut" stdDeviation="2.0"/><feColorMatrix in="blurOut" result="blurOut2" type="matrix" values="0 0 0 0 0 0 0 0 0 0 0 0 0 0 0 0 0 0 .4 0"/><feOffset dx="4.0" dy="4.0" in="blurOut2" result="blurOut3"/><feBlend in="SourceGraphic" in2="blurOut3" mode="normal"/></filter></defs><g><!--MD5=[9f57ac87861df6213de8b6562fe37a6e]
class Bob--><rect fill="#FEFECE" filter="url(#f19i2ncc75odzs)" height="46" id="Bob" style="stroke:#A80036;stroke-width:1.5;" width="54" x="7" y="61.5"/><ellipse cx="21" cy="76.5" fill="#ADD1B2" rx="10" ry="10" style="stroke:#A80036;stroke-width:1.0;"/><path d="M22.8125,73.1875 C22.0938,72.8438 21.6406,72.7344 20.9688,72.7344 C18.9688,72.7344 17.4219,74.3281 17.4219,76.4063 L17.4219,77.2656 C17.4219,79.2344 19.0469,80.6875 21.25,80.6875 C22.1875,80.6875 23.0781,80.4531 23.6406,80.0313 C24.0781,79.7188 24.3281,79.375 24.3281,79.0781 C24.3281,78.7344 24.0313,78.4375 23.6875,78.4375 C23.5156,78.4375 23.3594,78.5 23.2188,78.6406 C22.8594,79 22.8594,79 22.7188,79.0781 C22.3906,79.2813 21.875,79.375 21.2969,79.375 C19.7344,79.375 18.7344,78.5313 18.7344,77.2344 L18.7344,76.4063 C18.7344,75.0469 19.6875,74.0313 21.0156,74.0313 C21.4531,74.0313 21.9219,74.1563 22.2813,74.3438 C22.6563,74.5625 22.7813,74.7344 22.8438,75.0469 C22.9063,75.3594 22.9219,75.4375 23.0313,75.5469 C23.1406,75.6563 23.3125,75.7344 23.4844,75.7344 C23.6875,75.7344 23.8906,75.625 24.0156,75.4531 C24.1094,75.3438 24.1406,75.2031 24.1406,74.875 L24.1406,73.7813 C24.1406,73.4531 24.125,73.3438 24.0469,73.2344 C23.9219,73.0313 23.7188,72.9219 23.4844,72.9219 C23.2656,72.9219 23.1094,73 22.9375,73.2344 L22.8125,73.1875 Z " fill="#000000"/><text fill="#000000" font-family="Courier" font-size="13" lengthAdjust="spacing" textLength="24" x="34" y="80.738">Bob</text><line style="stroke:#A80036;stroke-width:1.5;" x1="8" x2="60" y1="91.5" y2="91.5"/><line style="stroke:#A80036;stroke-width:1.5;" x1="8" x2="60" y1="99.5" y2="99.5"/><!--MD5=[1d11bff648c05e5c086236afcf5827b8]
class Alice--><rect fill="#FEFECE" filter="url(#f19i2ncc75odzs)" height="46" id="Alice" style="stroke:#A80036;stroke-width:1.5;" width="70" x="138" y="61.5"/><ellipse cx="152" cy="76.5" fill="#ADD1B2" rx="10" ry="10" style="stroke:#A80036;stroke-width:1.0;"/><path d="M153.8125,73.1875 C153.0938,72.8438 152.6406,72.7344 151.9688,72.7344 C149.9688,72.7344 148.4219,74.3281 148.4219,76.4063 L148.4219,77.2656 C148.4219,79.2344 150.0469,80.6875 152.25,80.6875 C153.1875,80.6875 154.0781,80.4531 154.6406,80.0313 C155.0781,79.7188 155.3281,79.375 155.3281,79.0781 C155.3281,78.7344 155.0313,78.4375 154.6875,78.4375 C154.5156,78.4375 154.3594,78.5 154.2188,78.6406 C153.8594,79 153.8594,79 153.7188,79.0781 C153.3906,79.2813 152.875,79.375 152.2969,79.375 C150.7344,79.375 149.7344,78.5313 149.7344,77.2344 L149.7344,76.4063 C149.7344,75.0469 150.6875,74.0313 152.0156,74.0313 C152.4531,74.0313 152.9219,74.1563 153.2813,74.3438 C153.6563,74.5625 153.7813,74.7344 153.8438,75.0469 C153.9063,75.3594 153.9219,75.4375 154.0313,75.5469 C154.1406,75.6563 154.3125,75.7344 154.4844,75.7344 C154.6875,75.7344 154.8906,75.625 155.0156,75.4531 C155.1094,75.3438 155.1406,75.2031 155.1406,74.875 L155.1406,73.7813 C155.1406,73.4531 155.125,73.3438 155.0469,73.2344 C154.9219,73.0313 154.7188,72.9219 154.4844,72.9219 C154.2656,72.9219 154.1094,73 153.9375,73.2344 L153.8125,73.1875 Z " fill="#000000"/><text fill="#000000" font-family="Courier" font-size="13" lengthAdjust="spacing" textLength="40" x="165" y="80.738">Alice</text><line style="stroke:#A80036;stroke-width:1.5;" x1="139" x2="207" y1="91.5" y2="91.5"/><line style="stroke:#A80036;stroke-width:1.5;" x1="139" x2="207" y1="99.5" y2="99.5"/><!--MD5=[ed6624c6556d5e7b1bd23032162d20b7]
class Client--><rect codeLine="6" fill="#FEFECE" filter="url(#f19i2ncc75odzs)" height="155.2001" id="Client" style="stroke:#A80036;stroke-width:1.5;" width="417" x="243.5" y="7"/><ellipse cx="424" cy="22" fill="#ADD1B2" rx="10" ry="10" style="stroke:#A80036;stroke-width:1.0;"/><path d="M425.8125,18.6875 C425.0938,18.3438 424.6406,18.2344 423.9688,18.2344 C421.9688,18.2344 420.4219,19.8281 420.4219,21.9063 L420.4219,22.7656 C420.4219,24.7344 422.0469,26.1875 424.25,26.1875 C425.1875,26.1875 426.0781,25.9531 426.6406,25.5313 C427.0781,25.2188 427.3281,24.875 427.3281,24.5781 C427.3281,24.2344 427.0313,23.9375 426.6875,23.9375 C426.5156,23.9375 426.3594,24 426.2188,24.1406 C425.8594,24.5 425.8594,24.5 425.7188,24.5781 C425.3906,24.7813 424.875,24.875 424.2969,24.875 C422.7344,24.875 421.7344,24.0313 421.7344,22.7344 L421.7344,21.9063 C421.7344,20.5469 422.6875,19.5313 424.0156,19.5313 C424.4531,19.5313 424.9219,19.6563 425.2813,19.8438 C425.6563,20.0625 425.7813,20.2344 425.8438,20.5469 C425.9063,20.8594 425.9219,20.9375 426.0313,21.0469 C426.1406,21.1563 426.3125,21.2344 426.4844,21.2344 C426.6875,21.2344 426.8906,21.125 427.0156,20.9531 C427.1094,20.8438 427.1406,20.7031 427.1406,20.375 L427.1406,19.2813 C427.1406,18.9531 427.125,18.8438 427.0469,18.7344 C426.9219,18.5313 426.7188,18.4219 426.4844,18.4219 C426.2656,18.4219 426.1094,18.5 425.9375,18.7344 L425.8125,18.6875 Z " fill="#000000"/><text fill="#000000" font-family="Courier" font-size="13" lengthAdjust="spacing" textLength="48" x="443" y="26.238">Client</text><line style="stroke:#A80036;stroke-width:1.5;" x1="244.5" x2="659.5" y1="37" y2="37"/><line style="stroke:#A80036;stroke-width:1.5;" x1="244.5" x2="659.5" y1="45" y2="45"/><ellipse cx="254.5" cy="56" fill="#84BE84" rx="3" ry="3" style="stroke:#038048;stroke-width:1.0;"/><text fill="#000000" font-family="Courier" font-size="13" lengthAdjust="spacing" text-decoration="underline" textLength="264" x="262.5" y="61.038">New(Wallet, Config) Client, error</text><ellipse cx="254.5" cy="71.6" fill="#84BE84" rx="3" ry="3" style="stroke:#038048;stroke-width:1.0;"/><text fill="#000000" font-family="Courier" font-size="13" lengthAdjust="spacing" textLength="328" x="262.5" y="76.638">Init(ctx, Adjudicator, AssetHolder) error</text><ellipse cx="254.5" cy="87.2" fill="#84BE84" rx="3" ry="3" style="stroke:#038048;stroke-width:1.0;"/><text fill="#000000" font-family="Courier" font-size="13" lengthAdjust="spacing" textLength="368" x="262.5" y="92.238">RegisterPeer(Address, host, alias) Peer, error</text><ellipse cx="254.5" cy="102.8" fill="#84BE84" rx="3" ry="3" style="stroke:#038048;stroke-width:1.0;"/><text fill="#000000" font-family="Courier" font-size="13" lengthAdjust="spacing" textLength="392" x="262.5" y="107.8381">OnChainBalance(ctx, []Address) []ETHAmount, error</text><ellipse cx="254.5" cy="118.4001" fill="#84BE84" rx="3" ry="3" style="stroke:#038048;stroke-width:1.0;"/><text fill="#000000" font-family="Courier" font-size="13" lengthAdjust="spacing" textLength="392" x="262.5" y="123.4381">ProposeChannel(ctx, Peer, Balance) Channel, error</text><ellipse cx="254.5" cy="134.0001" fill="#84BE84" rx="3" ry="3" style="stroke:#038048;stroke-width:1.0;"/><text fill="#000000" font-family="Courier" font-size="13" lengthAdjust="spacing" textLength="272" x="262.5" y="139.0381">Proposals() &lt;-chan ChannelProposal</text><ellipse cx="254.5" cy="149.6001" fill="#84BE84" rx="3" ry="3" style="stroke:#038048;stroke-width:1.0;"/><text fill="#000000" font-family="Courier" font-size="13" lengthAdjust="spacing" textLength="128" x="262.5" y="154.6381">Close(ctx) error</text><!--MD5=[9f070bf9f108c27faa2eb76515c78fb3]
class Wallet--><rect codeLine="16" fill="#FEFECE" filter="url(#f19i2ncc75odzs)" height="92.8" id="Wallet" style="stroke:#A80036;stroke-width:1.5;" width="433" x="695.5" y="38"/><ellipse cx="884" cy="53" fill="#ADD1B2" rx="10" ry="10" style="stroke:#A80036;stroke-width:1.0;"/><path d="M885.8125,49.6875 C885.0938,49.3438 884.6406,49.2344 883.9688,49.2344 C881.9688,49.2344 880.4219,50.8281 880.4219,52.9063 L880.4219,53.7656 C880.4219,55.7344 882.0469,57.1875 884.25,57.1875 C885.1875,57.1875 886.0781,56.9531 886.6406,56.5313 C887.0781,56.2188 887.3281,55.875 887.3281,55.5781 C887.3281,55.2344 887.0313,54.9375 886.6875,54.9375 C886.5156,54.9375 886.3594,55 886.2188,55.1406 C885.8594,55.5 885.8594,55.5 885.7188,55.5781 C885.3906,55.7813 884.875,55.875 884.2969,55.875 C882.7344,55.875 881.7344,55.0313 881.7344,53.7344 L881.7344,52.9063 C881.7344,51.5469 882.6875,50.5313 884.0156,50.5313 C884.4531,50.5313 884.9219,50.6563 885.2813,50.8438 C885.6563,51.0625 885.7813,51.2344 885.8438,51.5469 C885.9063,51.8594 885.9219,51.9375 886.0313,52.0469 C886.1406,52.1563 886.3125,52.2344 886.4844,52.2344 C886.6875,52.2344 886.8906,52.125 887.0156,51.9531 C887.1094,51.8438 887.1406,51.7031 887.1406,51.375 L887.1406,50.2813 C887.1406,49.9531 887.125,49.8438 887.0469,49.7344 C886.9219,49.5313 886.7188,49.4219 886.4844,49.4219 C886.2656,49.4219 886.1094,49.5 885.9375,49.7344 L885.8125,49.6875 Z " fill="#000000"/><text fill="#000000" font-family="Courier" font-size="13" lengthAdjust="spacing" textLength="48" x="903" y="57.238">Wallet</text><line style="stroke:#A80036;stroke-width:1.5;" x1="696.5" x2="1127.5" y1="68" y2="68"/><ellipse cx="706.5" cy="79" rx="3" ry="3" style="stroke:#038048;stroke-width:1.0;fill:none;"/><text fill="#000000" font-family="Courier" font-size="13" lengthAdjust="spacing" textLength="120" x="714.5" y="84.038">Address Address</text><line style="stroke:#A80036;stroke-width:1.5;" x1="696.5" x2="1127.5" y1="91.6" y2="91.6"/><ellipse cx="706.5" cy="102.6" fill="#84BE84" rx="3" ry="3" style="stroke:#038048;stroke-width:1.0;"/><text fill="#000000" font-family="Courier" font-size="13" lengthAdjust="spacing" text-decoration="underline" textLength="408" x="714.5" y="107.638">NewWalletHD(chainID, mnemonic, index) Wallet, error</text><ellipse cx="706.5" cy="118.2" fill="#84BE84" rx="3" ry="3" style="stroke:#038048;stroke-width:1.0;"/><text fill="#000000" font-family="Courier" font-size="13" lengthAdjust="spacing" text-decoration="underline" textLength="360" x="714.5" y="123.238">NewWalletSK(chainID, secretKey) Wallet, error</text><!--MD5=[4bf8aff396996fef456cd268939daa24]
class Config--><rect codeLine="22" fill="#FEFECE" filter="url(#f19i2ncc75odzs)" height="155.2001" id="Config" style="stroke:#A80036;stroke-width:1.5;" width="441" x="1163.5" y="7"/><ellipse cx="1356" cy="22" fill="#ADD1B2" rx="10" ry="10" style="stroke:#A80036;stroke-width:1.0;"/><path d="M1357.8125,18.6875 C1357.0938,18.3438 1356.6406,18.2344 1355.9688,18.2344 C1353.9688,18.2344 1352.4219,19.8281 1352.4219,21.9063 L1352.4219,22.7656 C1352.4219,24.7344 1354.0469,26.1875 1356.25,26.1875 C1357.1875,26.1875 1358.0781,25.9531 1358.6406,25.5313 C1359.0781,25.2188 1359.3281,24.875 1359.3281,24.5781 C1359.3281,24.2344 1359.0313,23.9375 1358.6875,23.9375 C1358.5156,23.9375 1358.3594,24 1358.2188,24.1406 C1357.8594,24.5 1357.8594,24.5 1357.7188,24.5781 C1357.3906,24.7813 1356.875,24.875 1356.2969,24.875 C1354.7344,24.875 1353.7344,24.0313 1353.7344,22.7344 L1353.7344,21.9063 C1353.7344,20.5469 1354.6875,19.5313 1356.0156,19.5313 C1356.4531,19.5313 1356.9219,19.6563 1357.2813,19.8438 C1357.6563,20.0625 1357.7813,20.2344 1357.8438,20.5469 C1357.9063,20.8594 1357.9219,20.9375 1358.0313,21.0469 C1358.1406,21.1563 1358.3125,21.2344 1358.4844,21.2344 C1358.6875,21.2344 1358.8906,21.125 1359.0156,20.9531 C1359.1094,20.8438 1359.1406,20.7031 1359.1406,20.375 L1359.1406,19.2813 C1359.1406,18.9531 1359.125,18.8438 1359.0469,18.7344 C1358.9219,18.5313 1358.7188,18.4219 1358.4844,18.4219 C1358.2656,18.4219 1358.1094,18.5 1357.9375,18.7344 L1357.8125,18.6875 Z " fill="#000000"/><text fill="#000000" font-family="Courier" font-size="13" lengthAdjust="spacing" textLength="48" x="1375" y="26.238">Config</text><line style="stroke:#A80036;stroke-width:1.5;" x1="1164.5" x2="1603.5" y1="37" y2="37"/><ellipse cx="1174.5" cy="48" rx="3" ry="3" style="stroke:#038048;stroke-width:1.0;fill:none;"/><text fill="#000000" font-family="Courier" font-size="13" lengthAdjust="spacing" textLength="88" x="1182.5" y="53.038">Host string</text><ellipse cx="1174.5" cy="63.6" rx="3" ry="3" style="stroke:#038048;stroke-width:1.0;fill:none;"/><text fill="#000000" font-family="Courier" font-size="13" lengthAdjust="spacing" textLength="120" x="1182.5" y="68.638">ChainURL string</text><ellipse cx="1174.5" cy="79.2" rx="3" ry="3" style="stroke:#038048;stroke-width:1.0;fill:none;"/><text fill="#000000" font-family="Courier" font-size="13" lengthAdjust="spacing" textLength="248" x="1182.5" y="84.238">ChallengeDuration time.Duration</text><ellipse cx="1174.5" cy="94.8" rx="3" ry="3" style="stroke:#038048;stroke-width:1.0;fill:none;"/><text fill="#000000" font-family="Courier" font-size="13" lengthAdjust="spacing" textLength="200" x="1182.5" y="99.8381">DialTimeout time.Duration</text><ellipse cx="1174.5" cy="110.4001" rx="3" ry="3" style="stroke:#038048;stroke-width:1.0;fill:none;"/><text fill="#000000" font-family="Courier" font-size="13" lengthAdjust="spacing" textLength="184" x="1182.5" y="115.4381">ProposalBufferSize uint</text><ellipse cx="1174.5" cy="126.0001" rx="3" ry="3" style="stroke:#038048;stroke-width:1.0;fill:none;"/><text fill="#000000" font-family="Courier" font-size="13" lengthAdjust="spacing" textLength="168" x="1182.5" y="131.0381">UpdateBufferSize uint</text><line style="stroke:#A80036;stroke-width:1.5;" x1="1164.5" x2="1603.5" y1="138.6001" y2="138.6001"/><ellipse cx="1174.5" cy="149.6001" fill="#84BE84" rx="3" ry="3" style="stroke:#038048;stroke-width:1.0;"/><text fill="#000000" font-family="Courier" font-size="13" lengthAdjust="spacing" text-decoration="underline" textLength="416" x="1182.5" y="154.6381">MakeConfig(host, chainURL, challengeDuration) Config</text><!--MD5=[e96ae0f2fa8911699d686dad522c8f82]
class ChannelProposal--><rect codeLine="32" fill="#FEFECE" filter="url(#f19i2ncc75odzs)" height="108.4001" id="ChannelProposal" style="stroke:#A80036;stroke-width:1.5;" width="233" x="335.5" y="223"/><ellipse cx="388" cy="238" fill="#ADD1B2" rx="10" ry="10" style="stroke:#A80036;stroke-width:1.0;"/><path d="M389.8125,234.6875 C389.0938,234.3438 388.6406,234.2344 387.9688,234.2344 C385.9688,234.2344 384.4219,235.8281 384.4219,237.9063 L384.4219,238.7656 C384.4219,240.7344 386.0469,242.1875 388.25,242.1875 C389.1875,242.1875 390.0781,241.9531 390.6406,241.5313 C391.0781,241.2188 391.3281,240.875 391.3281,240.5781 C391.3281,240.2344 391.0313,239.9375 390.6875,239.9375 C390.5156,239.9375 390.3594,240 390.2188,240.1406 C389.8594,240.5 389.8594,240.5 389.7188,240.5781 C389.3906,240.7813 388.875,240.875 388.2969,240.875 C386.7344,240.875 385.7344,240.0313 385.7344,238.7344 L385.7344,237.9063 C385.7344,236.5469 386.6875,235.5313 388.0156,235.5313 C388.4531,235.5313 388.9219,235.6563 389.2813,235.8438 C389.6563,236.0625 389.7813,236.2344 389.8438,236.5469 C389.9063,236.8594 389.9219,236.9375 390.0313,237.0469 C390.1406,237.1563 390.3125,237.2344 390.4844,237.2344 C390.6875,237.2344 390.8906,237.125 391.0156,236.9531 C391.1094,236.8438 391.1406,236.7031 391.1406,236.375 L391.1406,235.2813 C391.1406,234.9531 391.125,234.8438 391.0469,234.7344 C390.9219,234.5313 390.7188,234.4219 390.4844,234.4219 C390.2656,234.4219 390.1094,234.5 389.9375,234.7344 L389.8125,234.6875 Z " fill="#000000"/><text fill="#000000" font-family="Courier" font-size="13" lengthAdjust="spacing" textLength="120" x="407" y="242.238">ChannelProposal</text><line style="stroke:#A80036;stroke-width:1.5;" x1="336.5" x2="567.5" y1="253" y2="253"/><ellipse cx="346.5" cy="264" rx="3" ry="3" style="stroke:#038048;stroke-width:1.0;fill:none;"/><text fill="#000000" font-family="Courier" font-size="13" lengthAdjust="spacing" textLength="96" x="354.5" y="269.038">From Address</text><ellipse cx="346.5" cy="279.6" rx="3" ry="3" style="stroke:#038048;stroke-width:1.0;fill:none;"/><text fill="#000000" font-family="Courier" font-size="13" lengthAdjust="spacing" textLength="120" x="354.5" y="284.638">Balance Balance</text><line style="stroke:#A80036;stroke-width:1.5;" x1="336.5" x2="567.5" y1="292.2" y2="292.2"/><ellipse cx="346.5" cy="303.2" fill="#84BE84" rx="3" ry="3" style="stroke:#038048;stroke-width:1.0;"/><text fill="#000000" font-family="Courier" font-size="13" lengthAdjust="spacing" textLength="208" x="354.5" y="308.238">Accept(ctx) Channel, error</text><ellipse cx="346.5" cy="318.8" fill="#84BE84" rx="3" ry="3" style="stroke:#038048;stroke-width:1.0;"/><text fill="#000000" font-family="Courier" font-size="13" lengthAdjust="spacing" textLength="200" x="354.5" y="323.8381">Reject(ctx, reason) error</text><!--MD5=[1e4e6ac1845d89d680410515caa0c0ac]
class Channel--><rect codeLine="40" fill="#FEFECE" filter="url(#f19i2ncc75odzs)" height="108.4001" id="Channel" style="stroke:#A80036;stroke-width:1.5;" width="249" x="603.5" y="223"/><ellipse cx="696" cy="238" fill="#ADD1B2" rx="10" ry="10" style="stroke:#A80036;stroke-width:1.0;"/><path d="M697.8125,234.6875 C697.0938,234.3438 696.6406,234.2344 695.9688,234.2344 C693.9688,234.2344 692.4219,235.8281 692.4219,237.9063 L692.4219,238.7656 C692.4219,240.7344 694.0469,242.1875 696.25,242.1875 C697.1875,242.1875 698.0781,241.9531 698.6406,241.5313 C699.0781,241.2188 699.3281,240.875 699.3281,240.5781 C699.3281,240.2344 699.0313,239.9375 698.6875,239.9375 C698.5156,239.9375 698.3594,240 698.2188,240.1406 C697.8594,240.5 697.8594,240.5 697.7188,240.5781 C697.3906,240.7813 696.875,240.875 696.2969,240.875 C694.7344,240.875 693.7344,240.0313 693.7344,238.7344 L693.7344,237.9063 C693.7344,236.5469 694.6875,235.5313 696.0156,235.5313 C696.4531,235.5313 696.9219,235.6563 697.2813,235.8438 C697.6563,236.0625 697.7813,236.2344 697.8438,236.5469 C697.9063,236.8594 697.9219,236.9375 698.0313,237.0469 C698.1406,237.1563 698.3125,237.2344 698.4844,237.2344 C698.6875,237.2344 698.8906,237.125 699.0156,236.9531 C699.1094,236.8438 699.1406,236.7031 699.1406,236.375 L699.1406,235.2813 C699.1406,234.9531 699.125,234.8438 699.0469,234.7344 C698.9219,234.5313 698.7188,234.4219 698.4844,234.4219 C698.2656,234.4219 698.1094,234.5 697.9375,234.7344 L697.8125,234.6875 Z " fill="#000000"/><text fill="#000000" font-family="Courier" font-size="13" lengthAdjust="spacing" textLength="56" x="715" y="242.238">Channel</text><line style="stroke:#A80036;stroke-width:1.5;" x1="604.5" x2="851.5" y1="253" y2="253"/><line style="stroke:#A80036;stroke-width:1.5;" x1="604.5" x2="851.5" y1="261" y2="261"/><ellipse cx="614.5" cy="272" fill="#84BE84" rx="3" ry="3" style="stroke:#038048;stroke-width:1.0;"/><text fill="#000000" font-family="Courier" font-size="13" lengthAdjust="spacing" textLength="208" x="622.5" y="277.038">Send(ctx, ETHAmount) error</text><ellipse cx="614.5" cy="287.6" fill="#84BE84" rx="3" ry="3" style="stroke:#038048;stroke-width:1.0;"/><text fill="#000000" font-family="Courier" font-size="13" lengthAdjust="spacing" textLength="224" x="622.5" y="292.638">Received() &lt;- chan ETHAmount</text><ellipse cx="614.5" cy="303.2" fill="#84BE84" rx="3" ry="3" style="stroke:#038048;stroke-width:1.0;"/><text fill="#000000" font-family="Courier" font-size="13" lengthAdjust="spacing" textLength="136" x="622.5" y="308.238">Balance() Balance</text><ellipse cx="614.5" cy="318.8" fill="#84BE84" rx="3" ry="3" style="stroke:#038048;stroke-width:1.0;"/><text fill="#000000" font-family="Courier" font-size="13" lengthAdjust="spacing" textLength="128" x="622.5" y="323.8381">Close(ctx) error</text><!--MD5=[b09fa2e86d703097c8c89305ce73de2f]
class Balance--><rect codeLine="47" fill="#FEFECE" filter="url(#f19i2ncc75odzs)" height="92.8" id="Balance" style="stroke:#A80036;stroke-width:1.5;" width="241" x="887.5" y="230.5"/><ellipse cx="976" cy="245.5" fill="#ADD1B2" rx="10" ry="10" style="stroke:#A80036;stroke-width:1.0;"/><path d="M977.8125,242.1875 C977.0938,241.8438 976.6406,241.7344 975.9688,241.7344 C973.9688,241.7344 972.4219,243.3281 972.4219,245.4063 L972.4219,246.2656 C972.4219,248.2344 974.0469,249.6875 976.25,249.6875 C977.1875,249.6875 978.0781,249.4531 978.6406,249.0313 C979.0781,248.7188 979.3281,248.375 979.3281,248.0781 C979.3281,247.7344 979.0313,247.4375 978.6875,247.4375 C978.5156,247.4375 978.3594,247.5 978.2188,247.6406 C977.8594,248 977.8594,248 977.7188,248.0781 C977.3906,248.2813 976.875,248.375 976.2969,248.375 C974.7344,248.375 973.7344,247.5313 973.7344,246.2344 L973.7344,245.4063 C973.7344,244.0469 974.6875,243.0313 976.0156,243.0313 C976.4531,243.0313 976.9219,243.1563 977.2813,243.3438 C977.6563,243.5625 977.7813,243.7344 977.8438,244.0469 C977.9063,244.3594 977.9219,244.4375 978.0313,244.5469 C978.1406,244.6563 978.3125,244.7344 978.4844,244.7344 C978.6875,244.7344 978.8906,244.625 979.0156,244.4531 C979.1094,244.3438 979.1406,244.2031 979.1406,243.875 L979.1406,242.7813 C979.1406,242.4531 979.125,242.3438 979.0469,242.2344 C978.9219,242.0313 978.7188,241.9219 978.4844,241.9219 C978.2656,241.9219 978.1094,242 977.9375,242.2344 L977.8125,242.1875 Z " fill="#000000"/><text fill="#000000" font-family="Courier" font-size="13" lengthAdjust="spacing" textLength="56" x="995" y="249.738">Balance</text><line style="stroke:#A80036;stroke-width:1.5;" x1="888.5" x2="1127.5" y1="260.5" y2="260.5"/><ellipse cx="898.5" cy="271.5" rx="3" ry="3" style="stroke:#038048;stroke-width:1.0;fill:none;"/><text fill="#000000" font-family="Courier" font-size="13" lengthAdjust="spacing" textLength="96" x="906.5" y="276.538">My ETHAmount</text><ellipse cx="898.5" cy="287.1" rx="3" ry="3" style="stroke:#038048;stroke-width:1.0;fill:none;"/><text fill="#000000" font-family="Courier" font-size="13" lengthAdjust="spacing" textLength="120" x="906.5" y="292.138">Other ETHAmount</text><line style="stroke:#A80036;stroke-width:1.5;" x1="888.5" x2="1127.5" y1="299.7" y2="299.7"/><ellipse cx="898.5" cy="310.7" fill="#84BE84" rx="3" ry="3" style="stroke:#038048;stroke-width:1.0;"/><text fill="#000000" font-family="Courier" font-size="13" lengthAdjust="spacing" text-decoration="underline" textLength="216" x="906.5" y="315.738">MakeBals(my, other) Balance</text><!--MD5=[5502d0b26b9225c8066cf2f4a2442e7f]
class Peer--><rect codeLine="53" fill="#FEFECE" filter="url(#f19i2ncc75odzs)" height="46" id="Peer" style="stroke:#A80036;stroke-width:1.5;" width="62" x="421" y="423"/><ellipse cx="435" cy="438" fill="#ADD1B2" rx="10" ry="10" style="stroke:#A80036;stroke-width:1.0;"/><path d="M436.8125,434.6875 C436.0938,434.3438 435.6406,434.2344 434.9688,434.2344 C432.9688,434.2344 431.4219,435.8281 431.4219,437.9063 L431.4219,438.7656 C431.4219,440.7344 433.0469,442.1875 435.25,442.1875 C436.1875,442.1875 437.0781,441.9531 437.6406,441.5313 C438.0781,441.2188 438.3281,440.875 438.3281,440.5781 C438.3281,440.2344 438.0313,439.9375 437.6875,439.9375 C437.5156,439.9375 437.3594,440 437.2188,440.1406 C436.8594,440.5 436.8594,440.5 436.7188,440.5781 C436.3906,440.7813 435.875,440.875 435.2969,440.875 C433.7344,440.875 432.7344,440.0313 432.7344,438.7344 L432.7344,437.9063 C432.7344,436.5469 433.6875,435.5313 435.0156,435.5313 C435.4531,435.5313 435.9219,435.6563 436.2813,435.8438 C436.6563,436.0625 436.7813,436.2344 436.8438,436.5469 C436.9063,436.8594 436.9219,436.9375 437.0313,437.0469 C437.1406,437.1563 437.3125,437.2344 437.4844,437.2344 C437.6875,437.2344 437.8906,437.125 438.0156,436.9531 C438.1094,436.8438 438.1406,436.7031 438.1406,436.375 L438.1406,435.2813 C438.1406,434.9531 438.125,434.8438 438.0469,434.7344 C437.9219,434.5313 437.7188,434.4219 437.4844,434.4219 C437.2656,434.4219 437.1094,434.5 436.9375,434.7344 L436.8125,434.6875 Z " fill="#000000"/><text fill="#000000" font-family="Courier" font-size="13" lengthAdjust="spacing" textLength="32" x="448" y="442.238">Peer</text><line style="stroke:#A80036;stroke-width:1.5;" x1="422" x2="482" y1="453" y2="453"/><line style="stroke:#A80036;stroke-width:1.5;" x1="422" x2="482" y1="461" y2="461"/><!--MD5=[ceddb97532dcf95ba5d6ab96c8b70982]
class ETHAmount--><rect codeLine="56" fill="#FEFECE" filter="url(#f19i2ncc75odzs)" height="108.4001" id="ETHAmount" style="stroke:#A80036;stroke-width:1.5;" width="281" x="518.5" y="392"/><ellipse cx="619" cy="407" fill="#ADD1B2" rx="10" ry="10" style="stroke:#A80036;stroke-width:1.0;"/><path d="M620.8125,403.6875 C620.0938,403.3438 619.6406,403.2344 618.9688,403.2344 C616.9688,403.2344 615.4219,404.8281 615.4219,406.9063 L615.4219,407.7656 C615.4219,409.7344 617.0469,411.1875 619.25,411.1875 C620.1875,411.1875 621.0781,410.9531 621.6406,410.5313 C622.0781,410.2188 622.3281,409.875 622.3281,409.5781 C622.3281,409.2344 622.0313,408.9375 621.6875,408.9375 C621.5156,408.9375 621.3594,409 621.2188,409.1406 C620.8594,409.5 620.8594,409.5 620.7188,409.5781 C620.3906,409.7813 619.875,409.875 619.2969,409.875 C617.7344,409.875 616.7344,409.0313 616.7344,407.7344 L616.7344,406.9063 C616.7344,405.5469 617.6875,404.5313 619.0156,404.5313 C619.4531,404.5313 619.9219,404.6563 620.2813,404.8438 C620.6563,405.0625 620.7813,405.2344 620.8438,405.5469 C620.9063,405.8594 620.9219,405.9375 621.0313,406.0469 C621.1406,406.1563 621.3125,406.2344 621.4844,406.2344 C621.6875,406.2344 621.8906,406.125 622.0156,405.9531 C622.1094,405.8438 622.1406,405.7031 622.1406,405.375 L622.1406,404.2813 C622.1406,403.9531 622.125,403.8438 622.0469,403.7344 C621.9219,403.5313 621.7188,403.4219 621.4844,403.4219 C621.2656,403.4219 621.1094,403.5 620.9375,403.7344 L620.8125,403.6875 Z " fill="#000000"/><text fill="#000000" font-family="Courier" font-size="13" lengthAdjust="spacing" textLength="72" x="638" y="411.238">ETHAmount</text><line style="stroke:#A80036;stroke-width:1.5;" x1="519.5" x2="798.5" y1="422" y2="422"/><ellipse cx="529.5" cy="433" rx="3" ry="3" style="stroke:#038048;stroke-width:1.0;fill:none;"/><text fill="#000000" font-family="Courier" font-size="13" lengthAdjust="spacing" textLength="88" x="537.5" y="438.038">ETH float64</text><ellipse cx="529.5" cy="448.6" rx="3" ry="3" style="stroke:#038048;stroke-width:1.0;fill:none;"/><text fill="#000000" font-family="Courier" font-size="13" lengthAdjust="spacing" textLength="96" x="537.5" y="453.638">WEI *big.Int</text><line style="stroke:#A80036;stroke-width:1.5;" x1="519.5" x2="798.5" y1="461.2" y2="461.2"/><ellipse cx="529.5" cy="472.2" fill="#84BE84" rx="3" ry="3" style="stroke:#038048;stroke-width:1.0;"/><text fill="#000000" font-family="Courier" font-size="13" lengthAdjust="spacing" text-decoration="underline" textLength="256" x="537.5" y="477.238">MakeAmountFromETH(eth) ETHAmount</text><ellipse cx="529.5" cy="487.8" fill="#84BE84" rx="3" ry="3" style="stroke:#038048;stroke-width:1.0;"/><text fill="#000000" font-family="Courier" font-size="13" lengthAdjust="spacing" text-decoration="underline" textLength="256" x="537.5" y="492.8381">MakeAmountFromWEI(wei) ETHAmount</text><!--MD5=[764fca796ce7f635542948d8fc39db5e]
class Payment--><rect codeLine="63" fill="#FEFECE" filter="url(#f19i2ncc75odzs)" height="77.2" id="Payment" style="stroke:#A80036;stroke-width:1.5;" width="585" x="834.5" y="407.5"/><ellipse cx="1095" cy="422.5" fill="#ADD1B2" rx="10" ry="10" style="stroke:#A80036;stroke-width:1.0;"/><path d="M1096.8125,419.1875 C1096.0938,418.8438 1095.6406,418.7344 1094.9688,418.7344 C1092.9688,418.7344 1091.4219,420.3281 1091.4219,422.4063 L1091.4219,423.2656 C1091.4219,425.2344 1093.0469,426.6875 1095.25,426.6875 C1096.1875,426.6875 1097.0781,426.4531 1097.6406,426.0313 C1098.0781,425.7188 1098.3281,425.375 1098.3281,425.0781 C1098.3281,424.7344 1098.0313,424.4375 1097.6875,424.4375 C1097.5156,424.4375 1097.3594,424.5 1097.2188,424.6406 C1096.8594,425 1096.8594,425 1096.7188,425.0781 C1096.3906,425.2813 1095.875,425.375 1095.2969,425.375 C1093.7344,425.375 1092.7344,424.5313 1092.7344,423.2344 L1092.7344,422.4063 C1092.7344,421.0469 1093.6875,420.0313 1095.0156,420.0313 C1095.4531,420.0313 1095.9219,420.1563 1096.2813,420.3438 C1096.6563,420.5625 1096.7813,420.7344 1096.8438,421.0469 C1096.9063,421.3594 1096.9219,421.4375 1097.0313,421.5469 C1097.1406,421.6563 1097.3125,421.7344 1097.4844,421.7344 C1097.6875,421.7344 1097.8906,421.625 1098.0156,421.4531 C1098.1094,421.3438 1098.1406,421.2031 1098.1406,420.875 L1098.1406,419.7813 C1098.1406,419.4531 1098.125,419.3438 1098.0469,419.2344 C1097.9219,419.0313 1097.7188,418.9219 1097.4844,418.9219 C1097.2656,418.9219 1097.1094,419 1096.9375,419.2344 L1096.8125,419.1875 Z " fill="#000000"/><text fill="#000000" font-family="Courier" font-size="13" lengthAdjust="spacing" textLength="56" x="1114" y="426.738">Payment</text><line style="stroke:#A80036;stroke-width:1.5;" x1="835.5" x2="1418.5" y1="437.5" y2="437.5"/><line style="stroke:#A80036;stroke-width:1.5;" x1="835.5" x2="1418.5" y1="445.5" y2="445.5"/><ellipse cx="845.5" cy="456.5" fill="#84BE84" rx="3" ry="3" style="stroke:#038048;stroke-width:1.0;"/><text fill="#000000" font-family="Courier" font-size="13" lengthAdjust="spacing" text-decoration="underline" textLength="560" x="853.5" y="461.538">DeployContracts(ctx, wallet, chainURL) Adjudicator, AssetHolder, error</text><ellipse cx="845.5" cy="472.1" fill="#84BE84" rx="3" ry="3" style="stroke:#038048;stroke-width:1.0;"/><text fill="#000000" font-family="Courier" font-size="13" lengthAdjust="spacing" text-decoration="underline" textLength="232" x="853.5" y="477.138">SetLogLevel(level, formatter)</text><!--MD5=[838606ef52345285279842dbe5b94377]
link Bob to Alice--><path codeLine="1" d="M61.1306,84.5 C81.4767,84.5 109.657,84.5 132.643,84.5 " fill="none" id="Bob-to-Alice" style="stroke:#A80036;stroke-width:1.0;"/><polygon fill="#A80036" points="137.764,84.5,128.764,80.5,132.764,84.5,128.764,88.5,137.764,84.5" style="stroke:#A80036;stroke-width:1.0;"/><text fill="#000000" font-family="Courier" font-size="13" lengthAdjust="spacing" textLength="40" x="79.5" y="77.538">hello</text><!--MD5=[c538482d1b5c2ce76fb6106916254ec6]
link Client to Wallet--><!--MD5=[c040ed7ef24ac89492b867a0e5365235]
link Wallet to Config--><!--MD5=[690daa6eccde6bc1118c13cdbd3b4454]
link Client to ChannelProposal--><!--MD5=[d0c9807300861319cc23e6742470372b]
link ChannelProposal to Channel--><!--MD5=[c4de36e6524453d44008edbb4b72913e]
link Channel to Balance--><!--MD5=[548eedcb578389fa4cb3a7eb564d3ce4]
link ChannelProposal to Peer--><!--MD5=[3249eb6c44b554d13bdc8c8c6a5a9af1]
link Peer to ETHAmount--><!--MD5=[6ed0c1b110e7bb84b51fd6d413028031]
link ETHAmount to Payment--><!--MD5=[f342caef900e6ed1855bd473cf6cbb01]
@startuml
Bob -> Alice : hello

skinparam defaultFontName Courier
skinparam defaultFontSize 13

class Client {
 + {static} New(Wallet, Config) Client, error
 + Init(ctx, Adjudicator, AssetHolder) error
 + RegisterPeer(Address, host, alias) Peer, error
 + OnChainBalance(ctx, []Address) []ETHAmount, error
 + ProposeChannel(ctx, Peer, Balance) Channel, error
 + Proposals() <-chan ChannelProposal
 + Close(ctx) error
}

class Wallet {
 + {static} NewWalletHD(chainID, mnemonic, index) Wallet, error
 + {static} NewWalletSK(chainID, secretKey) Wallet, error
 + Address Address
}

class Config {
 + {static} MakeConfig(host, chainURL, challengeDuration) Config
 + Host string
 + ChainURL string
 + ChallengeDuration time.Duration
 + DialTimeout time.Duration
 + ProposalBufferSize uint
 + UpdateBufferSize uint
}

class ChannelProposal {
 + Accept(ctx) Channel, error
 + Reject(ctx, reason) error

 + From Address
 + Balance Balance
}

class Channel {
 + Send(ctx, ETHAmount) error
 + Received() <- chan ETHAmount
 + Balance() Balance
 + Close(ctx) error
}

class Balance {
 + {static} MakeBals(my, other) Balance
 + My ETHAmount
 + Other ETHAmount
}

class Peer {
}

class ETHAmount {
 + ETH float64
 + WEI *big.Int
 + {static} MakeAmountFromETH(eth) ETHAmount
 + {static} MakeAmountFromWEI(wei) ETHAmount 
}

class Payment {
 + {static} DeployContracts(ctx, wallet, chainURL) Adjudicator, AssetHolder, error
 + {static} SetLogLevel(level, formatter)
}
@enduml

PlantUML version 1.2021.7beta2(Unknown compile time)
(GPL source distribution)
Java Runtime: Java(TM) SE Runtime Environment
JVM: Java HotSpot(TM) 64-Bit Server VM
Default Encoding: UTF-8
Language: en
Country: US
--></g></svg>
